<?xml version="1.0" encoding="iso-8859-1"?>
<!-- Generator: Adobe Illustrator 19.0.0, SVG Export Plug-In . SVG Version: 6.00 Build 0)  -->
<svg version="1.1" id="Capa_1" xmlns="http://www.w3.org/2000/svg" xmlns:xlink="http://www.w3.org/1999/xlink" x="0px" y="0px"
	 viewBox="0 0 512 512" style="enable-background:new 0 0 512 512;" xml:space="preserve">
<path style="fill:#546F7A;" d="M437.019,74.981C388.667,26.629,324.38,0,256,0S123.333,26.629,74.981,74.981
	S0.001,187.619,0.001,256s26.629,132.667,74.98,181.019S187.62,512,256,512s132.667-26.629,181.019-74.981
	s74.98-112.638,74.98-181.019S485.37,123.333,437.019,74.981z"/>
<path style="fill:#475D63;" d="M437.019,74.981C388.667,26.629,324.38,0,256,0c-5.635,0-11.238,0.199-16.812,0.557
	c62.052,3.996,119.84,30.056,164.207,74.424c48.352,48.352,74.98,112.638,74.98,181.019s-26.629,132.667-74.98,181.019
	c-44.368,44.367-102.155,70.427-164.207,74.424C244.761,511.802,250.364,512,256,512c68.38,0,132.667-26.629,181.019-74.981
	s74.98-112.638,74.98-181.019S485.37,123.333,437.019,74.981z"/>
<circle style="fill:#C6C5CA;" cx="256.005" cy="256.005" r="202.869"/>
<circle style="fill:#DDDDDD;" cx="256.005" cy="256.005" r="175.011"/>
<g>
	<path style="fill:#606060;" d="M256,53.128c-2.513,0-5.011,0.062-7.502,0.152l-0.003,27.709c-0.001,4.144,3.358,7.502,7.501,7.503
		c0.001,0,0.001,0,0.001,0c4.143,0,7.501-3.358,7.502-7.501l0.003-27.711C261.011,53.189,258.513,53.128,256,53.128z"/>
	<path style="fill:#606060;" d="M256.001,423.508C256,423.508,256,423.508,256.001,423.508c-4.144,0-7.502,3.358-7.503,7.501
		l-0.003,27.711c2.492,0.091,4.991,0.152,7.505,0.152c2.512,0,5.009-0.061,7.499-0.152l0.003-27.709
		C263.502,426.867,260.144,423.509,256.001,423.508z"/>
	<path style="fill:#606060;" d="M458.72,248.5l-27.711-0.004c0,0,0,0-0.001,0c-4.143,0-7.501,3.358-7.502,7.501
		c0,4.143,3.358,7.502,7.501,7.503l27.712,0.004c0.091-2.492,0.152-4.99,0.152-7.504C458.872,253.487,458.81,250.99,458.72,248.5z"
		/>
	<path style="fill:#606060;" d="M53.28,263.5l27.707,0.004c0.001,0,0.001,0,0.001,0c4.143,0,7.501-3.358,7.502-7.501
		c0-4.143-3.358-7.502-7.501-7.503l-27.709-0.004c-0.091,2.492-0.152,4.99-0.152,7.504C53.128,258.512,53.189,261.009,53.28,263.5z"
		/>
</g>
<path style="fill:#FF4A4A;" d="M209.773,209.773c-0.662,0.662-1.206,1.447-1.587,2.332l-62.01,143.86
	c-1.216,2.822-0.589,6.102,1.584,8.274c1.436,1.436,3.355,2.197,5.307,2.197c1.001,0,2.011-0.2,2.968-0.612l143.86-62.01
	c0.884-0.381,1.669-0.926,2.332-1.588L209.773,209.773z"/>
<g>
	<path style="fill:#FFDB56;" d="M208.791,210.99c-0.06,0.092-0.117,0.185-0.172,0.279
		C208.675,211.175,208.731,211.082,208.791,210.99z"/>
	<path style="fill:#FFDB56;" d="M208.359,211.751c-0.041,0.083-0.084,0.164-0.122,0.249
		C208.275,211.915,208.318,211.834,208.359,211.751z"/>
	<path style="fill:#FFDB56;" d="M209.285,210.311c-0.075,0.092-0.143,0.188-0.214,0.283
		C209.143,210.5,209.21,210.402,209.285,210.311z"/>
	<path style="fill:#FFDB56;" d="M364.24,147.759c-2.173-2.174-5.453-2.802-8.274-1.584l-143.86,62.01
		c-0.884,0.381-1.669,0.926-2.332,1.588l92.453,92.453c0.662-0.662,1.206-1.447,1.587-2.332l62.01-143.86
		C367.042,153.212,366.413,149.933,364.24,147.759z"/>
	<path style="fill:#FFDB56;" d="M301.688,302.715c-0.09,0.075-0.187,0.142-0.281,0.212
		C301.501,302.857,301.597,302.789,301.688,302.715z"/>
	<path style="fill:#FFDB56;" d="M300.243,303.644c-0.08,0.04-0.158,0.081-0.24,0.118
		C300.085,303.725,300.163,303.683,300.243,303.644z"/>
	<path style="fill:#FFDB56;" d="M301.008,303.21c-0.09,0.059-0.183,0.115-0.276,0.17
		C300.825,303.325,300.917,303.268,301.008,303.21z"/>
</g>
<g>
	<path style="fill:#606060;" d="M401.665,249.028l-64.817-25.77l-33.034,76.636c-0.381,0.884-0.925,1.669-1.587,2.332
		c-0.176,0.176-0.362,0.342-0.555,0.501l99.993-39.756c2.856-1.136,4.73-3.898,4.73-6.972
		C406.395,252.926,404.521,250.164,401.665,249.028z"/>
	<path style="fill:#606060;" d="M302.227,302.227c-0.662,0.662-1.447,1.206-2.332,1.588l-76.635,33.034l25.77,64.817
		c1.135,2.856,3.897,4.73,6.971,4.73c3.073,0,5.837-1.875,6.971-4.73l39.754-99.99C302.567,301.866,302.402,302.051,302.227,302.227
		z"/>
</g>
<path id="SVGCleanerId_0" style="fill:#606060;" d="M208.185,212.105c0.381-0.884,0.925-1.669,1.587-2.332
	c0.176-0.176,0.362-0.342,0.555-0.501l-99.993,39.756c-2.856,1.136-4.73,3.898-4.73,6.972c0,3.073,1.875,5.836,4.73,6.972
	l64.817,25.77L208.185,212.105z"/>
<g>
	<path id="SVGCleanerId_0_1_" style="fill:#606060;" d="M208.185,212.105c0.381-0.884,0.925-1.669,1.587-2.332
		c0.176-0.176,0.362-0.342,0.555-0.501l-99.993,39.756c-2.856,1.136-4.73,3.898-4.73,6.972c0,3.073,1.875,5.836,4.73,6.972
		l64.817,25.77L208.185,212.105z"/>
</g>
<path style="fill:#606060;" d="M209.773,209.773c0.662-0.662,1.447-1.206,2.332-1.588l76.635-33.034l-25.77-64.817
	c-1.135-2.856-3.897-4.73-6.971-4.73c-3.073,0-5.837,1.875-6.971,4.73l-39.754,99.99
	C209.432,210.134,209.598,209.948,209.773,209.773z"/>
<g>
</g>
<g>
</g>
<g>
</g>
<g>
</g>
<g>
</g>
<g>
</g>
<g>
</g>
<g>
</g>
<g>
</g>
<g>
</g>
<g>
</g>
<g>
</g>
<g>
</g>
<g>
</g>
<g>
</g>
</svg>
