<?xml version="1.0" encoding="iso-8859-1"?>
<!-- Generator: Adobe Illustrator 19.0.0, SVG Export Plug-In . SVG Version: 6.00 Build 0)  -->
<svg version="1.1" id="Layer_1" xmlns="http://www.w3.org/2000/svg" xmlns:xlink="http://www.w3.org/1999/xlink" x="0px" y="0px"
	 viewBox="0 0 491.52 491.52" style="enable-background:new 0 0 491.52 491.52;" xml:space="preserve">
<circle style="fill:#3A556A;" cx="245.76" cy="245.76" r="245.76"/>
<circle style="fill:#FFFFFF;" cx="245.76" cy="245.76" r="202.368"/>
<path style="fill:#EBF0F3;" d="M64.875,256.503c0-105.833,85.795-191.627,191.628-191.627c104.623,0,189.515,83.881,191.446,188.042
	c0.083-2.38,0.181-4.757,0.181-7.158c0-111.766-90.605-202.37-202.37-202.37S43.39,133.994,43.39,245.76
	s90.605,202.37,202.37,202.37c2.4,0,4.777-0.098,7.157-0.181C148.756,446.017,64.875,361.125,64.875,256.503z"/>
<g>
	<path style="fill:#3A556A;" d="M255.499,57.271h5.662v33.535h-6.142l-18.998-24.468v24.468h-5.662V57.271h5.662l19.478,25.043
		V57.271z"/>
	<path style="fill:#3A556A;" d="M245.664,404.744c-1.647,0-2.998,0.335-4.053,1.007c-1.058,0.671-1.585,1.687-1.585,3.049
		c0,1.359,0.528,2.398,1.585,3.116c1.054,0.723,3.299,1.496,6.739,2.327c3.435,0.832,6.028,1.999,7.774,3.502
		c1.742,1.504,2.612,3.722,2.612,6.646c0,2.928-1.101,5.302-3.311,7.126c-2.206,1.823-5.1,2.733-8.683,2.733
		c-5.244,0-9.899-1.804-13.958-5.419l3.549-4.272c3.388,2.944,6.907,4.415,10.553,4.415c1.824,0,3.272-0.394,4.342-1.175
		c1.074-0.784,1.609-1.823,1.609-3.119c0-1.296-0.505-2.304-1.511-3.022c-1.007-0.722-2.745-1.375-5.205-1.968
		c-2.464-0.593-4.338-1.136-5.614-1.631c-1.28-0.496-2.418-1.144-3.409-1.945c-1.983-1.504-2.971-3.803-2.971-6.907
		c0-3.104,1.124-5.493,3.381-7.172c2.253-1.68,5.045-2.519,8.371-2.519c2.143,0,4.272,0.352,6.38,1.054
		c2.113,0.703,3.936,1.695,5.47,2.975l-3.022,4.272c-0.991-0.898-2.334-1.631-4.029-2.21
		C248.983,405.032,247.312,404.744,245.664,404.744z"/>
	<path style="fill:#3A556A;" d="M433.67,228.993v5.325h-17.894v8.874h16.071v5.037h-16.071v8.973h18.472v5.325h-24.134v-33.534
		H433.67z"/>
	<path style="fill:#3A556A;" d="M71.811,253.126l7.484-24.133h5.084l7.485,24.133l8.445-24.133h6.091l-11.706,33.534H89.08
		l-7.051-22.981h-0.383l-7.055,22.981h-5.61l-11.71-33.534h6.095L71.811,253.126z"/>
</g>
<polygon style="fill:#E56353;" points="216.571,216.571 274.948,274.949 357.159,134.361 "/>
<polygon style="fill:#64798A;" points="216.571,216.571 134.361,357.159 274.948,274.949 "/>
<circle style="fill:#3A556A;" cx="245.76" cy="245.76" r="26.317"/>
<path style="fill:#2F4859;" d="M245.762,226.639c-0.482,0-0.886,0.24-1.357,0.273c8.4,0.723,15.057,7.553,15.057,16.138
	c0,9.065-7.345,16.412-16.41,16.412c-8.586,0-15.416-6.659-16.14-15.057c-0.035,0.471-0.272,0.873-0.272,1.354
	c0,10.561,8.559,19.121,19.122,19.121c10.559,0,19.119-8.56,19.119-19.121C264.88,235.199,256.321,226.639,245.762,226.639z"/>
<g>
</g>
<g>
</g>
<g>
</g>
<g>
</g>
<g>
</g>
<g>
</g>
<g>
</g>
<g>
</g>
<g>
</g>
<g>
</g>
<g>
</g>
<g>
</g>
<g>
</g>
<g>
</g>
<g>
</g>
</svg>
