<?xml version="1.0" encoding="iso-8859-1"?>
<!-- Generator: Adobe Illustrator 19.0.0, SVG Export Plug-In . SVG Version: 6.00 Build 0)  -->
<svg version="1.1" id="Layer_1" xmlns="http://www.w3.org/2000/svg" xmlns:xlink="http://www.w3.org/1999/xlink" x="0px" y="0px"
	 viewBox="0 0 504.123 504.123" style="enable-background:new 0 0 504.123 504.123;" xml:space="preserve">
<polygon style="fill:#D60000;" points="300.164,291.832 129.329,383.126 220.591,212.267 391.426,120.997 "/>
<g>
	<polyline style="fill:#7C1616;" points="391.426,120.997 300.164,291.832 129.329,383.126 	"/>
	<polygon style="fill:#7C1616;" points="220.591,291.832 129.321,121.013 300.164,212.291 391.441,383.126 	"/>
</g>
<polyline style="fill:#D60000;" points="391.441,383.126 220.591,291.832 129.321,121.013 "/>
<g>
	<polygon style="fill:#FF7F00;" points="316.642,252.069 260.377,437.406 204.12,252.069 260.377,66.718 	"/>
	<polygon style="fill:#FF7F00;" points="260.377,308.326 75.041,252.069 260.377,195.812 445.729,252.069 	"/>
</g>
<g>
	<polyline style="fill:#FF4800;" points="445.729,252.069 260.377,308.326 75.041,252.069 	"/>
	<polyline style="fill:#FF4800;" points="260.377,66.718 316.642,252.069 260.377,437.406 	"/>
</g>
<g>
	<circle style="fill:#B0B9BF;" cx="408.345" cy="104.117" r="8.326"/>
	<circle style="fill:#B0B9BF;" cx="112.449" cy="399.99" r="8.326"/>
	<circle style="fill:#B0B9BF;" cx="408.345" cy="399.99" r="8.318"/>
	<circle style="fill:#B0B9BF;" cx="112.449" cy="104.125" r="8.326"/>
	<circle style="fill:#B0B9BF;" cx="155.772" cy="70.877" r="8.326"/>
	<circle style="fill:#B0B9BF;" cx="364.983" cy="433.231" r="8.326"/>
	<circle style="fill:#B0B9BF;" cx="314.531" cy="49.971" r="8.326"/>
	<path style="fill:#B0B9BF;" d="M214.289,456.31c-1.213,4.443-5.766,7.081-10.201,5.884c-4.458-1.189-7.073-5.742-5.892-10.193
		c1.182-4.458,5.742-7.089,10.201-5.892C212.856,447.299,215.471,451.852,214.289,456.31z"/>
	<circle style="fill:#B0B9BF;" cx="441.586" cy="147.448" r="8.334"/>
	<path style="fill:#B0B9BF;" d="M83.367,363.882c-4.001,2.3-9.074,0.929-11.382-3.056c-2.292-3.994-0.953-9.074,3.048-11.359
		c3.986-2.324,9.074-0.953,11.382,3.048C88.7,356.502,87.361,361.567,83.367,363.882z"/>
	<circle style="fill:#B0B9BF;" cx="462.46" cy="306.176" r="8.326"/>
	<path style="fill:#B0B9BF;" d="M56.144,205.958c-4.474-1.205-7.089-5.758-5.908-10.224c1.197-4.427,5.75-7.066,10.216-5.86
		c4.458,1.166,7.089,5.742,5.892,10.201C65.148,204.509,60.595,207.132,56.144,205.958z"/>
	<circle style="fill:#B0B9BF;" cx="79.192" cy="147.456" r="8.334"/>
	<circle style="fill:#B0B9BF;" cx="441.586" cy="356.667" r="8.334"/>
	<path style="fill:#B0B9BF;" d="M214.289,47.813c1.182,4.435-1.481,9.011-5.892,10.201c-4.458,1.197-9.027-1.434-10.201-5.892
		c-1.182-4.435,1.434-8.995,5.892-10.193C208.516,40.739,213.068,43.378,214.289,47.813z"/>
	<circle style="fill:#B0B9BF;" cx="314.531" cy="454.183" r="8.326"/>
	<path style="fill:#B0B9BF;" d="M372.19,75.02c-2.308,4.001-7.389,5.356-11.366,3.064c-4.001-2.292-5.341-7.389-3.033-11.366
		c2.276-3.986,7.373-5.356,11.351-3.064C373.135,65.961,374.49,71.058,372.19,75.02z"/>
	<path style="fill:#B0B9BF;" d="M162.979,437.406c-2.308,4.001-7.396,5.356-11.382,3.064c-3.986-2.308-5.341-7.389-3.017-11.366
		c2.276-4.001,7.373-5.372,11.366-3.064C163.932,428.355,165.287,433.404,162.979,437.406z"/>
	<path style="fill:#B0B9BF;" d="M464.642,205.95c-4.458,1.182-9.019-1.434-10.216-5.868c-1.197-4.458,1.449-9.019,5.908-10.216
		c4.443-1.182,8.972,1.449,10.201,5.884C471.699,200.208,469.084,204.761,464.642,205.95z"/>
	<path style="fill:#B0B9BF;" d="M60.453,314.258c-4.474,1.182-9.027-1.449-10.232-5.9c-1.166-4.443,1.449-9.019,5.923-10.185
		c4.443-1.221,9.019,1.434,10.201,5.884C67.519,308.508,64.888,313.06,60.453,314.258z"/>
</g>
<g>
	<path style="fill:#96A3AA;" d="M276.809,0h-5.325c-1.631,0-2.954,1.315-2.954,2.946v18.29c0,1.851,0.016,3.647,0.032,5.388
		c-0.599-1.024-1.26-2.064-1.922-3.119L252.626,1.371C252.083,0.504,251.146,0,250.129,0h-6.168c-1.631,0-2.954,1.315-2.954,2.946
		v43.733c0,1.638,1.323,2.962,2.954,2.962h5.325c1.631,0,2.954-1.323,2.954-2.962V27.995c0-2.166-0.016-4.143-0.032-6.026
		c0.772,1.308,1.599,2.655,2.489,4.088l13.895,22.197c0.536,0.859,1.481,1.386,2.505,1.386h5.711c1.615,0,2.954-1.323,2.954-2.962
		V2.946C279.762,1.315,278.423,0,276.809,0z"/>
	<path style="fill:#96A3AA;" d="M272.689,493.481h-15.998v-9.854h14.045c1.631,0,2.954-1.331,2.954-2.962v-4.663
		c0-1.623-1.323-2.938-2.954-2.938h-14.045v-7.94h15.029c1.631,0,2.938-1.315,2.938-2.946v-4.734c0-1.638-1.308-2.962-2.938-2.962
		h-23.631c-1.631,0-2.954,1.323-2.954,2.962v43.733c0,1.631,1.323,2.946,2.954,2.946h24.6c1.631,0,2.954-1.315,2.954-2.946v-4.734
		C275.643,494.82,274.319,493.481,272.689,493.481z"/>
	<path style="fill:#96A3AA;" d="M70.669,227.249h-5.782c-1.339,0-2.505,0.898-2.844,2.198l-5.782,22.095l-0.173,0.677
		c-0.126,0.457-0.228,0.914-0.339,1.371c-0.158-0.638-0.307-1.26-0.449-1.89l-5.325-22.189c-0.323-1.323-1.504-2.253-2.875-2.253
		H41.21c-1.355,0-2.521,0.898-2.859,2.19l-5.845,22.063c-0.213,0.843-0.449,1.686-0.662,2.521c-0.181-0.796-0.37-1.575-0.551-2.379
		l-5.199-22.126c-0.307-1.339-1.489-2.276-2.859-2.276h-5.979c-0.906,0-1.772,0.417-2.339,1.142c-0.551,0.717-0.74,1.646-0.52,2.528
		l11.091,43.748c0.339,1.308,1.52,2.213,2.859,2.213h5.908c1.323,0,2.489-0.882,2.844-2.166l6.215-22.741
		c0.126-0.449,0.244-0.874,0.37-1.308c0.11,0.394,0.197,0.796,0.291,1.189l5.522,22.78c0.307,1.315,1.489,2.245,2.859,2.245h5.908
		c1.323,0,2.473-0.866,2.828-2.135l12.398-43.748c0.244-0.882,0.079-1.835-0.488-2.576
		C72.458,227.675,71.591,227.249,70.669,227.249z"/>
	<path style="fill:#96A3AA;" d="M476.78,246.422c-6.357-2.458-6.814-3.844-6.814-5.695c0-1.741,1.386-3.6,5.293-3.6
		c3.096,0,5.459,0.937,6.892,1.717c0.772,0.425,1.678,0.473,2.473,0.165c0.819-0.323,1.449-0.977,1.725-1.804l1.568-4.608
		c0.449-1.339-0.126-2.804-1.339-3.505c-1.678-0.945-5.341-2.528-11.122-2.528c-9.925,0-17.109,6.239-17.109,14.824
		c0,10.382,10.169,13.982,13.446,15.147c5.876,2.269,6.341,3.962,6.341,5.947c0,4.08-4.324,4.513-6.183,4.513
		c-2.922,0-6.12-0.898-8.586-2.418c-0.788-0.48-1.741-0.567-2.599-0.244c-0.843,0.323-1.504,1.024-1.772,1.906l-1.434,4.726
		c-0.37,1.245,0.11,2.584,1.182,3.308c2.907,1.938,8.168,3.285,12.8,3.285c12.635,0,18.274-7.806,18.274-15.541
		C489.824,252.652,482.837,248.769,476.78,246.422z"/>
</g>
<g>
</g>
<g>
</g>
<g>
</g>
<g>
</g>
<g>
</g>
<g>
</g>
<g>
</g>
<g>
</g>
<g>
</g>
<g>
</g>
<g>
</g>
<g>
</g>
<g>
</g>
<g>
</g>
<g>
</g>
</svg>
